<svg xmlns="http://www.w3.org/2000/svg" xmlns:xlink="http://www.w3.org/1999/xlink" width="500" zoomAndPan="magnify" viewBox="0 0 375 107.249998" height="143" preserveAspectRatio="xMidYMid meet" version="1.2"><defs><clipPath id="057b8be126"><path d="M 1.300781 0 L 373.695312 0 L 373.695312 106.503906 L 1.300781 106.503906 Z M 1.300781 0 "/></clipPath><clipPath id="75f3d14281"><rect x="0" width="373" y="0" height="107"/></clipPath></defs><g id="4ee474c032"><g clip-rule="nonzero" clip-path="url(#057b8be126)"><g transform="matrix(1,0,0,1,1,0.000000000000007834)"><g clip-path="url(#75f3d14281)"><g style="fill:#fae5c0;fill-opacity:1;"><g transform="translate(0.371394, 54.756416)"><path style="stroke:none" d="M 35.9375 -7.46875 L 35.9375 0 L 4.765625 0 L 4.765625 -40.25 L 35.1875 -40.25 L 35.1875 -32.78125 L 14.03125 -32.78125 L 14.03125 -24.03125 L 32.71875 -24.03125 L 32.71875 -16.796875 L 14.03125 -16.796875 L 14.03125 -7.46875 Z M 35.9375 -7.46875 "/></g></g><g style="fill:#fae5c0;fill-opacity:1;"><g transform="translate(38.939302, 54.756416)"><path style="stroke:none" d="M 43.46875 -40.25 L 26.046875 0 L 16.84375 0 L -0.515625 -40.25 L 9.546875 -40.25 L 21.796875 -11.5 L 34.21875 -40.25 Z M 43.46875 -40.25 "/></g></g><g style="fill:#fae5c0;fill-opacity:1;"><g transform="translate(81.818082, 54.756416)"><path style="stroke:none" d="M 35.9375 -7.46875 L 35.9375 0 L 4.765625 0 L 4.765625 -40.25 L 35.1875 -40.25 L 35.1875 -32.78125 L 14.03125 -32.78125 L 14.03125 -24.03125 L 32.71875 -24.03125 L 32.71875 -16.796875 L 14.03125 -16.796875 L 14.03125 -7.46875 Z M 35.9375 -7.46875 "/></g></g><g style="fill:#fae5c0;fill-opacity:1;"><g transform="translate(120.385991, 54.756416)"><path style="stroke:none" d="M 30.421875 0 L 22.65625 -11.21875 L 14.09375 -11.21875 L 14.09375 0 L 4.765625 0 L 4.765625 -40.25 L 22.1875 -40.25 C 25.757812 -40.25 28.859375 -39.65625 31.484375 -38.46875 C 34.109375 -37.28125 36.128906 -35.59375 37.546875 -33.40625 C 38.960938 -31.21875 39.671875 -28.628906 39.671875 -25.640625 C 39.671875 -22.648438 38.953125 -20.070312 37.515625 -17.90625 C 36.078125 -15.738281 34.035156 -14.082031 31.390625 -12.9375 L 40.421875 0 Z M 30.25 -25.640625 C 30.25 -27.898438 29.519531 -29.632812 28.0625 -30.84375 C 26.601562 -32.050781 24.472656 -32.65625 21.671875 -32.65625 L 14.09375 -32.65625 L 14.09375 -18.625 L 21.671875 -18.625 C 24.472656 -18.625 26.601562 -19.238281 28.0625 -20.46875 C 29.519531 -21.695312 30.25 -23.421875 30.25 -25.640625 Z M 30.25 -25.640625 "/></g></g><g style="fill:#fae5c0;fill-opacity:1;"><g transform="translate(162.632507, 54.756416)"><path style="stroke:none" d="M 31.96875 -20.75 L 40.484375 -20.75 L 40.484375 -4.421875 C 38.296875 -2.773438 35.765625 -1.507812 32.890625 -0.625 C 30.015625 0.25 27.117188 0.6875 24.203125 0.6875 C 20.023438 0.6875 16.269531 -0.203125 12.9375 -1.984375 C 9.601562 -3.765625 6.988281 -6.234375 5.09375 -9.390625 C 3.195312 -12.554688 2.25 -16.132812 2.25 -20.125 C 2.25 -24.113281 3.195312 -27.6875 5.09375 -30.84375 C 6.988281 -34.007812 9.625 -36.484375 13 -38.265625 C 16.375 -40.046875 20.164062 -40.9375 24.375 -40.9375 C 27.90625 -40.9375 31.109375 -40.34375 33.984375 -39.15625 C 36.859375 -37.96875 39.273438 -36.242188 41.234375 -33.984375 L 35.25 -28.46875 C 32.375 -31.488281 28.90625 -33 24.84375 -33 C 22.269531 -33 19.984375 -32.460938 17.984375 -31.390625 C 15.992188 -30.316406 14.441406 -28.800781 13.328125 -26.84375 C 12.222656 -24.894531 11.671875 -22.65625 11.671875 -20.125 C 11.671875 -17.632812 12.222656 -15.410156 13.328125 -13.453125 C 14.441406 -11.492188 15.988281 -9.96875 17.96875 -8.875 C 19.945312 -7.789062 22.195312 -7.25 24.71875 -7.25 C 27.40625 -7.25 29.820312 -7.820312 31.96875 -8.96875 Z M 31.96875 -20.75 "/></g></g><g style="fill:#fae5c0;fill-opacity:1;"><g transform="translate(206.948244, 54.756416)"><path style="stroke:none" d="M 30.421875 0 L 22.65625 -11.21875 L 14.09375 -11.21875 L 14.09375 0 L 4.765625 0 L 4.765625 -40.25 L 22.1875 -40.25 C 25.757812 -40.25 28.859375 -39.65625 31.484375 -38.46875 C 34.109375 -37.28125 36.128906 -35.59375 37.546875 -33.40625 C 38.960938 -31.21875 39.671875 -28.628906 39.671875 -25.640625 C 39.671875 -22.648438 38.953125 -20.070312 37.515625 -17.90625 C 36.078125 -15.738281 34.035156 -14.082031 31.390625 -12.9375 L 40.421875 0 Z M 30.25 -25.640625 C 30.25 -27.898438 29.519531 -29.632812 28.0625 -30.84375 C 26.601562 -32.050781 24.472656 -32.65625 21.671875 -32.65625 L 14.09375 -32.65625 L 14.09375 -18.625 L 21.671875 -18.625 C 24.472656 -18.625 26.601562 -19.238281 28.0625 -20.46875 C 29.519531 -21.695312 30.25 -23.421875 30.25 -25.640625 Z M 30.25 -25.640625 "/></g></g><g style="fill:#fae5c0;fill-opacity:1;"><g transform="translate(249.19476, 54.756416)"><path style="stroke:none" d="M 35.9375 -7.46875 L 35.9375 0 L 4.765625 0 L 4.765625 -40.25 L 35.1875 -40.25 L 35.1875 -32.78125 L 14.03125 -32.78125 L 14.03125 -24.03125 L 32.71875 -24.03125 L 32.71875 -16.796875 L 14.03125 -16.796875 L 14.03125 -7.46875 Z M 35.9375 -7.46875 "/></g></g><g style="fill:#fae5c0;fill-opacity:1;"><g transform="translate(287.762669, 54.756416)"><path style="stroke:none" d="M 35.9375 -7.46875 L 35.9375 0 L 4.765625 0 L 4.765625 -40.25 L 35.1875 -40.25 L 35.1875 -32.78125 L 14.03125 -32.78125 L 14.03125 -24.03125 L 32.71875 -24.03125 L 32.71875 -16.796875 L 14.03125 -16.796875 L 14.03125 -7.46875 Z M 35.9375 -7.46875 "/></g></g><g style="fill:#fae5c0;fill-opacity:1;"><g transform="translate(326.330577, 54.756416)"><path style="stroke:none" d="M 41.6875 -40.25 L 41.6875 0 L 34.046875 0 L 13.96875 -24.4375 L 13.96875 0 L 4.765625 0 L 4.765625 -40.25 L 12.484375 -40.25 L 32.484375 -15.8125 L 32.484375 -40.25 Z M 41.6875 -40.25 "/></g></g><g style="fill:#fae5c0;fill-opacity:1;"><g transform="translate(78.549017, 97.633978)"><path style="stroke:none" d="M 13.5625 0.390625 C 11.25 0.390625 9.15625 -0.109375 7.28125 -1.109375 C 5.414062 -2.117188 3.945312 -3.515625 2.875 -5.296875 C 1.800781 -7.085938 1.265625 -9.109375 1.265625 -11.359375 C 1.265625 -13.609375 1.800781 -15.625 2.875 -17.40625 C 3.945312 -19.195312 5.414062 -20.59375 7.28125 -21.59375 C 9.15625 -22.601562 11.257812 -23.109375 13.59375 -23.109375 C 15.5625 -23.109375 17.34375 -22.757812 18.9375 -22.0625 C 20.53125 -21.375 21.863281 -20.378906 22.9375 -19.078125 L 19.5625 -15.96875 C 18.03125 -17.738281 16.128906 -18.625 13.859375 -18.625 C 12.453125 -18.625 11.195312 -18.316406 10.09375 -17.703125 C 8.988281 -17.085938 8.128906 -16.226562 7.515625 -15.125 C 6.898438 -14.019531 6.59375 -12.765625 6.59375 -11.359375 C 6.59375 -9.953125 6.898438 -8.695312 7.515625 -7.59375 C 8.128906 -6.488281 8.988281 -5.628906 10.09375 -5.015625 C 11.195312 -4.398438 12.453125 -4.09375 13.859375 -4.09375 C 16.128906 -4.09375 18.03125 -4.988281 19.5625 -6.78125 L 22.9375 -3.671875 C 21.863281 -2.347656 20.523438 -1.335938 18.921875 -0.640625 C 17.316406 0.046875 15.53125 0.390625 13.5625 0.390625 Z M 13.5625 0.390625 "/></g></g><g style="fill:#fae5c0;fill-opacity:1;"><g transform="translate(102.324272, 97.633978)"><path style="stroke:none" d="M 23.53125 -22.71875 L 23.53125 0 L 18.265625 0 L 18.265625 -9.3125 L 7.953125 -9.3125 L 7.953125 0 L 2.6875 0 L 2.6875 -22.71875 L 7.953125 -22.71875 L 7.953125 -13.765625 L 18.265625 -13.765625 L 18.265625 -22.71875 Z M 23.53125 -22.71875 "/></g></g><g style="fill:#fae5c0;fill-opacity:1;"><g transform="translate(128.5322, 97.633978)"><path style="stroke:none" d="M 20.28125 -4.21875 L 20.28125 0 L 2.6875 0 L 2.6875 -22.71875 L 19.859375 -22.71875 L 19.859375 -18.5 L 7.921875 -18.5 L 7.921875 -13.5625 L 18.46875 -13.5625 L 18.46875 -9.46875 L 7.921875 -9.46875 L 7.921875 -4.21875 Z M 20.28125 -4.21875 "/></g></g><g style="fill:#fae5c0;fill-opacity:1;"><g transform="translate(150.296463, 97.633978)"><path style="stroke:none" d="M 10.15625 0.390625 C 8.363281 0.390625 6.628906 0.144531 4.953125 -0.34375 C 3.273438 -0.832031 1.925781 -1.460938 0.90625 -2.234375 L 2.6875 -6.203125 C 3.664062 -5.484375 4.820312 -4.90625 6.15625 -4.46875 C 7.5 -4.039062 8.84375 -3.828125 10.1875 -3.828125 C 11.675781 -3.828125 12.78125 -4.046875 13.5 -4.484375 C 14.21875 -4.929688 14.578125 -5.523438 14.578125 -6.265625 C 14.578125 -6.804688 14.363281 -7.253906 13.9375 -7.609375 C 13.519531 -7.960938 12.976562 -8.25 12.3125 -8.46875 C 11.65625 -8.6875 10.765625 -8.925781 9.640625 -9.1875 C 7.910156 -9.59375 6.492188 -10 5.390625 -10.40625 C 4.285156 -10.820312 3.335938 -11.484375 2.546875 -12.390625 C 1.753906 -13.304688 1.359375 -14.519531 1.359375 -16.03125 C 1.359375 -17.351562 1.710938 -18.546875 2.421875 -19.609375 C 3.140625 -20.679688 4.21875 -21.53125 5.65625 -22.15625 C 7.101562 -22.789062 8.863281 -23.109375 10.9375 -23.109375 C 12.382812 -23.109375 13.800781 -22.929688 15.1875 -22.578125 C 16.570312 -22.234375 17.785156 -21.738281 18.828125 -21.09375 L 17.203125 -17.109375 C 15.097656 -18.296875 13 -18.890625 10.90625 -18.890625 C 9.4375 -18.890625 8.347656 -18.648438 7.640625 -18.171875 C 6.941406 -17.691406 6.59375 -17.066406 6.59375 -16.296875 C 6.59375 -15.515625 6.992188 -14.929688 7.796875 -14.546875 C 8.609375 -14.171875 9.847656 -13.800781 11.515625 -13.4375 C 13.242188 -13.019531 14.660156 -12.601562 15.765625 -12.1875 C 16.867188 -11.78125 17.816406 -11.132812 18.609375 -10.25 C 19.398438 -9.363281 19.796875 -8.164062 19.796875 -6.65625 C 19.796875 -5.351562 19.429688 -4.164062 18.703125 -3.09375 C 17.984375 -2.03125 16.894531 -1.179688 15.4375 -0.546875 C 13.988281 0.078125 12.226562 0.390625 10.15625 0.390625 Z M 10.15625 0.390625 "/></g></g><g style="fill:#fae5c0;fill-opacity:1;"><g transform="translate(170.990358, 97.633978)"><path style="stroke:none" d="M 10.15625 0.390625 C 8.363281 0.390625 6.628906 0.144531 4.953125 -0.34375 C 3.273438 -0.832031 1.925781 -1.460938 0.90625 -2.234375 L 2.6875 -6.203125 C 3.664062 -5.484375 4.820312 -4.90625 6.15625 -4.46875 C 7.5 -4.039062 8.84375 -3.828125 10.1875 -3.828125 C 11.675781 -3.828125 12.78125 -4.046875 13.5 -4.484375 C 14.21875 -4.929688 14.578125 -5.523438 14.578125 -6.265625 C 14.578125 -6.804688 14.363281 -7.253906 13.9375 -7.609375 C 13.519531 -7.960938 12.976562 -8.25 12.3125 -8.46875 C 11.65625 -8.6875 10.765625 -8.925781 9.640625 -9.1875 C 7.910156 -9.59375 6.492188 -10 5.390625 -10.40625 C 4.285156 -10.820312 3.335938 -11.484375 2.546875 -12.390625 C 1.753906 -13.304688 1.359375 -14.519531 1.359375 -16.03125 C 1.359375 -17.351562 1.710938 -18.546875 2.421875 -19.609375 C 3.140625 -20.679688 4.21875 -21.53125 5.65625 -22.15625 C 7.101562 -22.789062 8.863281 -23.109375 10.9375 -23.109375 C 12.382812 -23.109375 13.800781 -22.929688 15.1875 -22.578125 C 16.570312 -22.234375 17.785156 -21.738281 18.828125 -21.09375 L 17.203125 -17.109375 C 15.097656 -18.296875 13 -18.890625 10.90625 -18.890625 C 9.4375 -18.890625 8.347656 -18.648438 7.640625 -18.171875 C 6.941406 -17.691406 6.59375 -17.066406 6.59375 -16.296875 C 6.59375 -15.515625 6.992188 -14.929688 7.796875 -14.546875 C 8.609375 -14.171875 9.847656 -13.800781 11.515625 -13.4375 C 13.242188 -13.019531 14.660156 -12.601562 15.765625 -12.1875 C 16.867188 -11.78125 17.816406 -11.132812 18.609375 -10.25 C 19.398438 -9.363281 19.796875 -8.164062 19.796875 -6.65625 C 19.796875 -5.351562 19.429688 -4.164062 18.703125 -3.09375 C 17.984375 -2.03125 16.894531 -1.179688 15.4375 -0.546875 C 13.988281 0.078125 12.226562 0.390625 10.15625 0.390625 Z M 10.15625 0.390625 "/></g></g><g style="fill:#fae5c0;fill-opacity:1;"><g transform="translate(191.684253, 97.633978)"><path style="stroke:none" d=""/></g></g><g style="fill:#fae5c0;fill-opacity:1;"><g transform="translate(200.863516, 97.633978)"><path style="stroke:none" d="M 13.5625 0.390625 C 11.25 0.390625 9.15625 -0.109375 7.28125 -1.109375 C 5.414062 -2.117188 3.945312 -3.515625 2.875 -5.296875 C 1.800781 -7.085938 1.265625 -9.109375 1.265625 -11.359375 C 1.265625 -13.609375 1.800781 -15.625 2.875 -17.40625 C 3.945312 -19.195312 5.414062 -20.59375 7.28125 -21.59375 C 9.15625 -22.601562 11.257812 -23.109375 13.59375 -23.109375 C 15.5625 -23.109375 17.34375 -22.757812 18.9375 -22.0625 C 20.53125 -21.375 21.863281 -20.378906 22.9375 -19.078125 L 19.5625 -15.96875 C 18.03125 -17.738281 16.128906 -18.625 13.859375 -18.625 C 12.453125 -18.625 11.195312 -18.316406 10.09375 -17.703125 C 8.988281 -17.085938 8.128906 -16.226562 7.515625 -15.125 C 6.898438 -14.019531 6.59375 -12.765625 6.59375 -11.359375 C 6.59375 -9.953125 6.898438 -8.695312 7.515625 -7.59375 C 8.128906 -6.488281 8.988281 -5.628906 10.09375 -5.015625 C 11.195312 -4.398438 12.453125 -4.09375 13.859375 -4.09375 C 16.128906 -4.09375 18.03125 -4.988281 19.5625 -6.78125 L 22.9375 -3.671875 C 21.863281 -2.347656 20.523438 -1.335938 18.921875 -0.640625 C 17.316406 0.046875 15.53125 0.390625 13.5625 0.390625 Z M 13.5625 0.390625 "/></g></g><g style="fill:#fae5c0;fill-opacity:1;"><g transform="translate(224.638771, 97.633978)"><path style="stroke:none" d="M 2.6875 -22.71875 L 7.953125 -22.71875 L 7.953125 -4.28125 L 19.34375 -4.28125 L 19.34375 0 L 2.6875 0 Z M 2.6875 -22.71875 "/></g></g><g style="fill:#fae5c0;fill-opacity:1;"><g transform="translate(244.229855, 97.633978)"><path style="stroke:none" d="M 12.78125 0.390625 C 9.539062 0.390625 7.015625 -0.503906 5.203125 -2.296875 C 3.398438 -4.097656 2.5 -6.664062 2.5 -10 L 2.5 -22.71875 L 7.75 -22.71875 L 7.75 -10.1875 C 7.75 -6.125 9.4375 -4.09375 12.8125 -4.09375 C 14.457031 -4.09375 15.710938 -4.582031 16.578125 -5.5625 C 17.441406 -6.550781 17.875 -8.09375 17.875 -10.1875 L 17.875 -22.71875 L 23.078125 -22.71875 L 23.078125 -10 C 23.078125 -6.664062 22.171875 -4.097656 20.359375 -2.296875 C 18.554688 -0.503906 16.03125 0.390625 12.78125 0.390625 Z M 12.78125 0.390625 "/></g></g><g style="fill:#fae5c0;fill-opacity:1;"><g transform="translate(269.789073, 97.633978)"><path style="stroke:none" d="M 19.375 -11.8125 C 20.675781 -11.40625 21.691406 -10.71875 22.421875 -9.75 C 23.160156 -8.789062 23.53125 -7.609375 23.53125 -6.203125 C 23.53125 -4.210938 22.753906 -2.679688 21.203125 -1.609375 C 19.660156 -0.535156 17.40625 0 14.4375 0 L 2.6875 0 L 2.6875 -22.71875 L 13.796875 -22.71875 C 16.566406 -22.71875 18.691406 -22.1875 20.171875 -21.125 C 21.648438 -20.0625 22.390625 -18.625 22.390625 -16.8125 C 22.390625 -15.707031 22.125 -14.722656 21.59375 -13.859375 C 21.0625 -12.992188 20.320312 -12.3125 19.375 -11.8125 Z M 7.921875 -18.765625 L 7.921875 -13.40625 L 13.140625 -13.40625 C 14.441406 -13.40625 15.425781 -13.628906 16.09375 -14.078125 C 16.769531 -14.535156 17.109375 -15.207031 17.109375 -16.09375 C 17.109375 -16.976562 16.769531 -17.644531 16.09375 -18.09375 C 15.425781 -18.539062 14.441406 -18.765625 13.140625 -18.765625 Z M 14.046875 -3.953125 C 15.429688 -3.953125 16.472656 -4.179688 17.171875 -4.640625 C 17.878906 -5.097656 18.234375 -5.800781 18.234375 -6.75 C 18.234375 -8.632812 16.835938 -9.578125 14.046875 -9.578125 L 7.921875 -9.578125 L 7.921875 -3.953125 Z M 14.046875 -3.953125 "/></g></g></g></g></g></g></svg>